<svg xmlns="http://www.w3.org/2000/svg" width="35.698" height="20.824" viewBox="0 0 35.698 20.824">
  <g id="Group_525" data-name="Group 525" transform="translate(-345.302 -63.463)">
    <path id="Path_348" data-name="Path 348" d="M38.711,13.1H5.987A1.492,1.492,0,0,1,4.5,11.612h0a1.492,1.492,0,0,1,1.487-1.487H38.711A1.492,1.492,0,0,1,40.2,11.612h0A1.492,1.492,0,0,1,38.711,13.1Z" transform="translate(340.802 53.338)" fill="#0f8c73"/>
    <path id="Path_349" data-name="Path 349" d="M38.711,19.85H5.987A1.492,1.492,0,0,1,4.5,18.362h0a1.492,1.492,0,0,1,1.487-1.487H38.711A1.492,1.492,0,0,1,40.2,18.362h0A1.492,1.492,0,0,1,38.711,19.85Z" transform="translate(340.802 55.512)" fill="#0f8c73"/>
    <path id="Path_350" data-name="Path 350" d="M38.711,26.6H5.987A1.492,1.492,0,0,1,4.5,25.112h0a1.492,1.492,0,0,1,1.487-1.487H38.711A1.492,1.492,0,0,1,40.2,25.112h0A1.492,1.492,0,0,1,38.711,26.6Z" transform="translate(340.802 57.688)" fill="#0f8c73"/>
  </g>
</svg>
